HIERARCHY
ROOT Hips
{
	OFFSET 0.000000 0.000000 0.000000
	CHANNELS 6 Xposition Yposition Zposition Zrotation Yrotation Xrotation 
	JOINT LHipJoint
	{
		OFFSET 0.000000 0.000000 0.000000
		CHANNELS 3 Zrotation Yrotation Xrotation
		JOINT LeftUpLeg
		{
			OFFSET 1.363060 -1.794630 0.839290
			CHANNELS 3 Zrotation Yrotation Xrotation
			JOINT LeftLeg
			{
				OFFSET 2.448110 -6.726130 0.000000
				CHANNELS 3 Zrotation Yrotation Xrotation
				JOINT LeftFoot
				{
					OFFSET 2.562200 -7.039590 0.000000
					CHANNELS 3 Zrotation Yrotation Xrotation
					JOINT LeftToeBase
					{
						OFFSET 0.157640 -0.433110 2.322550
						CHANNELS 3 Zrotation Yrotation Xrotation
						End Site
						{
							OFFSET 0.000000 0.000000 0.000000
						}
					}
				}
			}
		}
	}
	JOINT RHipJoint
	{
		OFFSET 0.000000 0.000000 0.000000
		CHANNELS 3 Zrotation Yrotation Xrotation
		JOINT RightUpLeg
		{
			OFFSET -1.305520 -1.794630 0.839290
			CHANNELS 3 Zrotation Yrotation Xrotation
			JOINT RightLeg
			{
				OFFSET -2.542530 -6.985550 0.000000
				CHANNELS 3 Zrotation Yrotation Xrotation
				JOINT RightFoot
				{
					OFFSET -2.568260 -7.056230 0.000000
					CHANNELS 3 Zrotation Yrotation Xrotation
					JOINT RightToeBase
					{
						OFFSET -0.164730 -0.452590 2.363150
						CHANNELS 3 Zrotation Yrotation Xrotation
						End Site
						{
							OFFSET 0.000000 0.000000 0.000000
						}
					}
				}
			}
		}
	}
	JOINT LowerBack
	{
		OFFSET 0.000000 0.000000 0.000000
		CHANNELS 3 Zrotation Yrotation Xrotation
		JOINT Spine
		{
			OFFSET 0.028270 2.035590 -0.193380
			CHANNELS 3 Zrotation Yrotation Xrotation
			JOINT Spine1
			{
				OFFSET 0.056720 2.048850 -0.042750
				CHANNELS 3 Zrotation Yrotation Xrotation
				JOINT Neck
				{
					OFFSET 0.000000 0.000000 0.000000
					CHANNELS 3 Zrotation Yrotation Xrotation
					JOINT Neck1
					{
						OFFSET -0.054170 1.746240 0.172020
						CHANNELS 3 Zrotation Yrotation Xrotation
						JOINT Head
						{
							OFFSET 0.104070 1.761360 -0.123970
							CHANNELS 3 Zrotation Yrotation Xrotation
							End Site
							{
								OFFSET 0.000000 0.000000 0.000000
							}
						}
					}
				}
				JOINT LeftShoulder
				{
					OFFSET 0.000000 0.000000 0.000000
					CHANNELS 3 Zrotation Yrotation Xrotation
					JOINT LeftArm
					{
						OFFSET 3.362410 1.200890 -0.311210
						CHANNELS 3 Zrotation Yrotation Xrotation
						JOINT LeftForeArm
						{
							OFFSET 4.983000 -0.000000 -0.000000
							CHANNELS 3 Zrotation Yrotation Xrotation
							JOINT LeftHand
							{
								OFFSET 3.483560 -0.000000 -0.000000
								CHANNELS 3 Zrotation Yrotation Xrotation
								JOINT LeftFingerBase
								{
									OFFSET 0.000000 0.000000 0.000000
									CHANNELS 3 Zrotation Yrotation Xrotation
									JOINT LeftHandIndex1
									{
										OFFSET 0.715260 -0.000000 -0.000000
										CHANNELS 3 Zrotation Yrotation Xrotation
										End Site
										{
											OFFSET 0.000000 0.000000 0.000000
										}
									}
								}
								JOINT LThumb
								{
									OFFSET 0.000000 0.000000 0.000000
									CHANNELS 3 Zrotation Yrotation Xrotation
									End Site
									{
										OFFSET 0.000000 0.000000 0.000000
									}
								}
							}
						}
					}
				}
				JOINT RightShoulder
				{
					OFFSET 0.000000 0.000000 0.000000
					CHANNELS 3 Zrotation Yrotation Xrotation
					JOINT RightArm
					{
						OFFSET -3.136600 1.374050 -0.404650
						CHANNELS 3 Zrotation Yrotation Xrotation
						JOINT RightForeArm
						{
							OFFSET -5.241900 -0.000000 -0.000000
							CHANNELS 3 Zrotation Yrotation Xrotation
							JOINT RightHand
							{
								OFFSET -3.444170 -0.000000 -0.000000
								CHANNELS 3 Zrotation Yrotation Xrotation
								JOINT RightFingerBase
								{
									OFFSET 0.000000 0.000000 0.000000
									CHANNELS 3 Zrotation Yrotation Xrotation
									JOINT RightHandIndex1
									{
										OFFSET -0.622530 -0.000000 -0.000000
										CHANNELS 3 Zrotation Yrotation Xrotation
										End Site
										{
											OFFSET 0.000000 0.000000 0.000000
										}
									}
								}
								JOINT RThumb
								{
									OFFSET 0.000000 0.000000 0.000000
									CHANNELS 3 Zrotation Yrotation Xrotation
									End Site
									{
										OFFSET 0.000000 0.000000 0.000000
									}
								}
							}
						}
					}
				}
			}
		}
	}
}
MOTION
Frames: 11
Frame Time: 0.008333
3.428805 17.190800 0.925654 -177.412637 -74.821288 -171.706520 -11.792144 1.773087 -0.821365 -3.970827 25.543475 -13.672521 -2.808177 -1.258896 -2.794164 0.773045 6.889117 2.140151 1.237300 -0.000000 -36.319600 9.211968 -1.838646 3.776822 2.219729 2.108302 -12.604474 2.658081 1.463235 -1.406845 0.346190 0.968068 1.043766 -0.461199 0.000000 -44.010600 1.126479 -0.461095 -4.353439 -0.415655 -0.652131 -3.980167 -6.444881 -0.441476 -2.615540 7.726599 -4.882370 1.270919 -4.313914 -0.408542 2.415414 0.000000 0.000000 0.000000 11.195036 3.846239 -2.430729 -85.936603 -17.557481 19.582153 -179.619928 -52.693876 179.887899 7.057260 -7.855086 -0.565522 -0.151540 1.199509 -0.000000 0.000000 0.000000 0.000000 0.000000 0.000000 0.000000 3.005084 -2.256787 -3.455708 91.728247 25.239242 38.036217 -178.851028 61.145230 179.815358 -13.635032 15.688417 -2.072033 0.277566 -1.187022 -0.000000 0.000000 0.000000 0.000000 0.000000 0.000000 0.000000 
3.427346 17.191024 0.927190 -177.400311 -74.656578 -171.724826 -11.799624 1.784909 -0.820521 -3.976216 25.646670 -13.680086 -2.812122 -1.260132 -2.778994 0.778800 6.933250 2.114262 1.240400 -0.000000 -36.296000 9.204563 -1.847181 3.811022 2.212187 2.168998 -12.625702 2.668234 1.470083 -1.450711 0.357544 1.080476 1.102970 -0.434900 -0.000001 -44.013800 1.192677 -0.463325 -4.397236 -0.418226 -0.663284 -3.989386 -6.510585 -0.450863 -2.626365 7.724472 -4.894307 1.328044 -4.297492 -0.407958 2.432266 0.000000 0.000000 0.000000 11.156950 3.787094 -2.482029 -85.400815 -18.196253 18.966266 -179.570900 -53.184871 179.888269 7.095210 -7.644360 -0.554602 -0.154328 1.186729 -0.000000 0.000000 0.000000 0.000000 0.000000 0.000000 0.000000 3.017124 -2.297391 -3.452249 91.772891 25.300362 38.132772 -178.829626 61.176290 179.815007 -13.627702 15.682975 -2.069801 0.274953 -1.185355 -0.000000 0.000000 0.000000 0.000000 0.000000 0.000000 0.000000 
3.426245 17.191365 0.928982 -177.395540 -74.506599 -171.742365 -11.807651 1.799495 -0.814396 -3.983757 25.742521 -13.687459 -2.816240 -1.261550 -2.767848 0.783271 6.968125 2.094252 1.242900 -0.000000 -36.273499 9.197168 -1.856981 3.845554 2.204629 2.217627 -12.641659 2.678120 1.477708 -1.498093 0.368730 1.185379 1.165345 -0.410500 -0.000000 -44.017001 1.270831 -0.467335 -4.447202 -0.422564 -0.677907 -3.998841 -6.596201 -0.463088 -2.634824 7.729816 -4.913090 1.396736 -4.277374 -0.407221 2.452436 0.000000 0.000000 0.000000 11.086706 3.718513 -2.539963 -84.727197 -19.037982 18.254007 -179.501185 -53.805920 179.889274 7.099794 -7.405275 -0.539001 -0.156557 1.172588 -0.000000 0.000000 0.000000 0.000000 0.000000 0.000000 0.000000 3.041351 -2.352306 -3.447775 91.818074 25.368837 38.230860 -178.803349 61.211528 179.814574 -13.616395 15.677320 -2.066685 0.271609 -1.183370 -0.000000 0.000000 0.000000 0.000000 0.000000 0.000000 0.000000 
3.425470 17.191774 0.931020 -177.398397 -74.375718 -171.757277 -11.816065 1.817123 -0.801989 -3.994277 25.828576 -13.697200 -2.820710 -1.263136 -2.760030 0.786158 6.990876 2.079774 1.244200 0.000000 -36.253800 9.189835 -1.868101 3.880684 2.196779 2.253975 -12.651824 2.687430 1.486419 -1.549501 0.379184 1.277690 1.229315 -0.389099 -0.000000 -44.018699 1.359638 -0.474384 -4.504795 -0.428857 -0.697220 -4.009565 -6.701813 -0.479624 -2.644285 7.745007 -4.941690 1.479828 -4.253402 -0.406369 2.476829 0.000000 0.000000 0.000000 10.988506 3.617052 -2.601813 -83.901894 -20.081399 17.431198 -179.419892 -54.565556 179.890855 7.070734 -7.137810 -0.519027 -0.157697 1.156904 -0.000000 0.000000 0.000000 0.000000 0.000000 0.000000 0.000000 3.080618 -2.423486 -3.440153 91.860340 25.445516 38.331243 -178.772979 61.251183 179.814044 -13.604042 15.672311 -2.063484 0.267692 -1.181118 -0.000000 0.000000 0.000000 0.000000 0.000000 0.000000 0.000000 
3.425138 17.192285 0.933283 -177.414663 -74.268873 -171.765737 -11.824532 1.837876 -0.782821 -4.008934 25.900345 -13.708526 -2.825337 -1.264726 -2.756409 0.787320 7.000509 2.072486 1.244400 0.000001 -36.236300 9.182808 -1.880112 3.916156 2.186895 2.279601 -12.656331 2.695319 1.495753 -1.600863 0.388352 1.350559 1.291707 -0.372600 -0.000000 -44.019000 1.458725 -0.485298 -4.569977 -0.438106 -0.722220 -4.019533 -6.833778 -0.501100 -2.645944 7.774919 -4.976249 1.570092 -4.223466 -0.405185 2.503364 0.000000 0.000000 0.000000 10.842503 3.518965 -2.662187 -82.898865 -21.389685 16.531087 -179.323828 -55.507417 179.893008 7.013808 -6.825853 -0.494275 -0.158578 1.139094 -0.000000 0.000000 0.000000 0.000000 0.000000 0.000000 0.000000 3.135295 -2.503541 -3.434001 91.902492 25.524248 38.425873 -178.736970 61.288988 179.813438 -13.586927 15.666001 -2.059298 0.263029 -1.178535 -0.000000 0.000000 0.000000 0.000000 0.000000 0.000000 0.000000 
3.425226 17.192849 0.935711 -177.443984 -74.190320 -171.765836 -11.832749 1.862026 -0.756160 -4.028575 25.953765 -13.722811 -2.830070 -1.266200 -2.756955 0.786701 6.995818 2.071889 1.243300 0.000000 -36.222300 9.176320 -1.892517 3.951537 2.174349 2.294139 -12.655107 2.701432 1.505902 -1.651495 0.395773 1.399024 1.350245 -0.362200 0.000000 -44.017600 1.564831 -0.502759 -4.643067 -0.450252 -0.755296 -4.029854 -6.989260 -0.530339 -2.644349 7.821330 -5.018811 1.669463 -4.187607 -0.403722 2.532722 0.000000 0.000000 0.000000 10.656286 3.394555 -2.714805 -81.705780 -22.941805 15.539035 -179.229769 -56.632917 179.895500 6.935957 -6.475116 -0.465847 -0.158531 1.119245 -0.000000 0.000000 0.000000 0.000000 0.000000 0.000000 0.000000 3.207455 -2.592131 -3.427203 91.939360 25.606722 38.515947 -178.697100 61.327138 179.812754 -13.569254 15.658870 -2.054727 0.257917 -1.175656 -0.000000 0.000000 0.000000 0.000000 0.000000 0.000000 0.000000 
3.425907 17.193501 0.938276 -177.491360 -74.143790 -171.754095 -11.840263 1.889506 -0.721912 -4.054068 25.984976 -13.740247 -2.834727 -1.267247 -2.762052 0.784262 6.976132 2.079013 1.240800 0.000000 -36.211100 9.170733 -1.904410 3.985929 2.158014 2.297806 -12.648664 2.705142 1.516516 -1.698007 0.400894 1.417894 1.402663 -0.359100 0.000000 -44.014700 1.675663 -0.528991 -4.723033 -0.465723 -0.798548 -4.039147 -7.169550 -0.569385 -2.634435 7.887462 -5.067288 1.771406 -4.144578 -0.401844 2.563085 0.000000 0.000000 0.000000 10.417455 3.260618 -2.751174 -80.300736 -24.764924 14.474823 -179.145238 -57.969436 179.898141 6.848697 -6.080683 -0.434539 -0.157827 1.097279 -0.000000 0.000000 0.000000 0.000000 0.000000 0.000000 0.000000 3.297163 -2.683125 -3.422828 91.970948 25.690458 38.598077 -178.653680 61.362338 179.812035 -13.550158 15.649351 -2.049667 0.252425 -1.172448 -0.000000 0.000000 0.000000 0.000000 0.000000 0.000000 0.000000 
3.427054 17.194108 0.941008 -177.549113 -74.132121 -171.732550 -11.846714 1.920294 -0.679625 -4.085774 25.991418 -13.765942 -2.839493 -1.267669 -2.768848 0.779915 6.938872 2.090688 1.236300 -0.000001 -36.205700 9.166108 -1.915157 4.018869 2.139296 2.290087 -12.638145 2.706629 1.528256 -1.741990 0.403523 1.404066 1.447579 -0.364099 0.000000 -44.010500 1.784892 -0.567710 -4.810140 -0.483337 -0.854840 -4.051068 -7.362004 -0.622262 -2.631762 7.972078 -5.123496 1.883934 -4.095534 -0.399772 2.596963 0.000000 0.000000 0.000000 10.166302 3.043244 -2.766964 -78.691652 -26.757125 13.281499 -179.100099 -59.488871 179.900542 6.760433 -5.672530 -0.402852 -0.154507 1.074214 -0.000000 0.000000 0.000000 0.000000 0.000000 0.000000 0.000000 3.402594 -2.779018 -3.415034 91.986974 25.777794 38.675914 -178.609129 61.399645 179.811242 -13.538087 15.640783 -2.045815 0.246991 -1.169000 -0.000000 0.000000 0.000000 0.000000 0.000000 0.000000 0.000000 
3.428805 17.194737 0.943836 -177.623595 -74.158186 -171.696855 -11.851679 1.954088 -0.630074 -4.124032 25.968380 -13.795634 -2.843831 -1.267232 -2.781529 0.773877 6.886192 2.110301 1.230500 -0.000001 -36.203400 9.163052 -1.923486 4.048283 2.116565 2.270333 -12.623468 2.705142 1.540231 -1.777495 0.403033 1.354049 1.482344 -0.378100 0.000000 -44.006500 1.889802 -0.620686 -4.900778 -0.503913 -0.925745 -4.061624 -7.569914 -0.690015 -2.622284 8.079227 -5.182803 1.991898 -4.038565 -0.397217 2.629961 0.000000 0.000000 0.000000 9.873483 2.803991 -2.753020 -76.850988 -28.981532 12.003177 -179.091092 -61.237998 179.902560 6.686163 -5.237000 -0.370777 -0.149580 1.050020 -0.000000 0.000000 0.000000 0.000000 0.000000 0.000000 0.000000 3.521867 -2.871928 -3.411613 91.991247 25.864848 38.743352 -178.563040 61.429009 179.810463 -13.527910 15.629442 -2.041770 0.241574 -1.165223 -0.000000 0.000000 0.000000 0.000000 0.000000 0.000000 0.000000 
3.431181 17.195353 0.946789 -177.712036 -74.223639 -171.647369 -11.854765 1.990342 -0.574138 -4.168145 25.913321 -13.829926 -2.847566 -1.265733 -2.800045 0.766288 6.818346 2.136960 1.223200 -0.000000 -36.205100 9.161900 -1.928302 4.072330 2.091003 2.236895 -12.605396 2.700729 1.552454 -1.803763 0.399458 1.267162 1.505582 -0.401200 0.000000 -44.004000 1.983594 -0.690554 -4.991925 -0.526618 -1.012886 -4.072221 -7.782242 -0.775011 -2.614721 8.208393 -5.243824 2.096242 -3.974240 -0.394265 2.662441 0.000000 0.000000 0.000000 9.565325 2.511144 -2.707338 -74.785947 -31.367009 10.602074 -179.133511 -63.210389 179.903940 6.634029 -4.794690 -0.339916 -0.141776 1.025697 -0.000000 0.000000 0.000000 0.000000 0.000000 0.000000 0.000000 3.651741 -2.962790 -3.410674 91.976973 25.950972 38.800817 -178.516708 61.450601 179.809707 -13.523006 15.616550 -2.038330 0.236390 -1.161109 -0.000000 0.000000 0.000000 0.000000 0.000000 0.000000 0.000000 
3.434110 17.195973 0.949837 -177.809965 -74.329453 -171.585303 -11.855739 2.028379 -0.512744 -4.217891 25.825319 -13.870284 -2.850692 -1.263065 -2.824943 0.757151 6.734788 2.170815 1.214400 -0.000000 -36.209800 9.162836 -1.928810 4.089572 2.063783 2.188500 -12.585579 2.693513 1.564807 -1.819584 0.392769 1.143618 1.517240 -0.433500 -0.000000 -44.003500 2.061483 -0.778751 -5.080841 -0.550945 -1.116979 -4.082002 -7.992077 -0.878185 -2.607762 8.360036 -5.306584 2.189335 -3.902558 -0.390851 2.692250 0.000000 0.000000 0.000000 9.248427 2.180009 -2.629952 -72.500560 -33.891985 9.071001 -179.227942 -65.423315 179.904557 6.612324 -4.357517 -0.311259 -0.130791 1.002133 -0.000000 0.000000 0.000000 0.000000 0.000000 0.000000 0.000000 3.789615 -3.054212 -3.414463 91.941692 26.037302 38.849594 -178.471432 61.460996 179.809035 -13.523411 15.601862 -2.035491 0.231610 -1.156609 -0.000000 0.000000 0.000000 0.000000 0.000000 0.000000 0.000000 
